<svg xmlns="http://www.w3.org/2000/svg" xmlns:xlink="http://www.w3.org/1999/xlink" width="2000" zoomAndPan="magnify" viewBox="0 0 1500 1499.999933" height="2000" preserveAspectRatio="xMidYMid meet" version="1.0"><defs><clipPath id="c128d8ac0b"><path d="M 132.121094 132.121094 L 1368 132.121094 L 1368 1368 L 132.121094 1368 Z M 132.121094 132.121094 " clip-rule="nonzero"/></clipPath></defs><rect x="-150" width="1800" fill="#ffffff" y="-149.999993" height="1799.99992" fill-opacity="1"/><rect x="-150" width="1800" fill="#ffffff" y="-149.999993" height="1799.99992" fill-opacity="1"/><g clip-path="url(#c128d8ac0b)"><path fill="#63a7fa" d="M 749.996094 1180.648438 C 512.152344 1180.648438 319.335938 987.839844 319.335938 749.996094 C 319.335938 512.152344 512.152344 319.332031 749.996094 319.332031 C 987.839844 319.332031 1180.648438 512.152344 1180.648438 749.996094 C 1180.648438 987.839844 987.839844 1180.648438 749.996094 1180.648438 Z M 1364.578125 686.800781 L 1340.167969 689.324219 C 1339.839844 686.097656 1339.476562 682.871094 1339.085938 679.65625 L 1363.363281 676.785156 C 1360.828125 655.328125 1357.160156 633.988281 1352.386719 612.886719 L 1352.347656 612.886719 C 1352.289062 612.597656 1352.21875 612.300781 1352.148438 612.023438 L 1351.675781 610.039062 L 1350.730469 606.113281 C 1350.097656 603.480469 1349.472656 600.855469 1348.8125 598.234375 L 1346.742188 590.40625 L 1345.695312 586.488281 L 1345.171875 584.539062 L 1344.609375 582.589844 L 1342.339844 574.8125 L 1341.203125 570.933594 C 1341.015625 570.277344 1340.8125 569.640625 1340.609375 568.996094 L 1340 567.0625 L 1337.539062 559.347656 C 1337.125 558.058594 1336.734375 556.777344 1336.300781 555.488281 L 1334.988281 551.660156 L 1311.882812 559.507812 C 1310.839844 556.402344 1309.75 553.308594 1308.65625 550.214844 L 1331.730469 541.960938 C 1324.445312 521.585938 1316.09375 501.589844 1306.71875 482.105469 L 1306.578125 482.167969 C 1297.414062 463.132812 1287.296875 444.574219 1276.242188 426.566406 L 1255.410156 439.359375 C 1253.660156 436.515625 1251.882812 433.691406 1250.097656 430.878906 L 1270.753906 417.675781 C 1270.402344 417.101562 1270.03125 416.539062 1269.660156 415.964844 L 1268.546875 414.277344 L 1266.324219 410.894531 C 1264.835938 408.640625 1263.359375 406.378906 1261.851562 404.136719 L 1257.242188 397.476562 L 1254.929688 394.152344 L 1253.773438 392.484375 L 1252.589844 390.84375 L 1247.816406 384.292969 L 1245.421875 381.027344 C 1245.03125 380.484375 1244.617188 379.945312 1244.207031 379.410156 L 1242.980469 377.804688 L 1238.058594 371.371094 C 1237.234375 370.308594 1236.417969 369.230469 1235.574219 368.175781 L 1233.96875 366.167969 L 1234 366.148438 C 1220.589844 349.207031 1206.285156 332.949219 1191.171875 317.484375 L 1173.640625 334.65625 C 1171.328125 332.285156 1168.984375 329.941406 1166.625 327.609375 L 1183.757812 310.25 C 1168.671875 295.382812 1152.847656 281.296875 1136.328125 268.035156 L 1136.417969 267.933594 L 1134.839844 266.648438 L 1133.242188 265.398438 L 1130.039062 262.910156 L 1123.625 257.945312 L 1122.824219 257.320312 L 1122.007812 256.722656 L 1120.371094 255.511719 L 1117.105469 253.101562 L 1110.574219 248.289062 L 1103.921875 243.632812 L 1100.59375 241.316406 L 1098.925781 240.148438 L 1098.101562 239.566406 L 1097.257812 239.003906 L 1090.496094 234.523438 L 1087.109375 232.28125 L 1085.421875 231.167969 L 1083.707031 230.082031 L 1070.46875 250.730469 C 1067.738281 248.972656 1064.996094 247.246094 1062.230469 245.535156 L 1075.132812 224.746094 C 1056.761719 213.351562 1037.804688 202.910156 1018.328125 193.496094 L 1018.289062 193.578125 C 999.164062 184.371094 979.589844 176.160156 959.699219 168.976562 L 951.40625 191.929688 C 948.3125 190.8125 945.199219 189.71875 942.082031 188.652344 L 950.019531 165.449219 L 948.097656 164.777344 L 946.171875 164.140625 L 942.3125 162.886719 L 934.597656 160.386719 L 933.632812 160.074219 L 932.65625 159.78125 L 930.707031 159.199219 L 926.816406 158.042969 L 919.042969 155.734375 L 911.214844 153.609375 L 907.292969 152.546875 L 905.335938 152.023438 L 904.347656 151.761719 L 903.363281 151.523438 L 895.484375 149.582031 L 891.539062 148.628906 L 889.566406 148.15625 L 887.589844 147.714844 L 887.570312 147.792969 C 867.019531 143.070312 846.199219 139.394531 825.25 136.804688 L 822.242188 161.140625 C 818.90625 160.726562 815.582031 160.347656 812.246094 159.980469 L 814.789062 135.675781 C 793.746094 133.46875 772.617188 132.347656 751.523438 132.300781 L 751.523438 132.191406 C 729.882812 132.128906 708.246094 133.203125 686.730469 135.425781 L 689.257812 159.832031 C 686.03125 160.167969 682.808594 160.527344 679.589844 160.90625 L 676.714844 136.640625 C 655.261719 139.175781 633.917969 142.839844 612.816406 147.625 L 612.820312 147.652344 C 612.527344 147.722656 612.238281 147.792969 611.949219 147.863281 L 609.976562 148.335938 L 606.039062 149.28125 C 603.414062 149.914062 600.789062 150.539062 598.167969 151.1875 L 590.335938 153.269531 L 586.425781 154.316406 L 584.46875 154.839844 L 582.523438 155.402344 L 574.75 157.671875 L 570.863281 158.808594 C 570.214844 159 569.570312 159.199219 568.929688 159.414062 L 566.996094 160.011719 L 559.28125 162.472656 C 557.996094 162.886719 556.707031 163.277344 555.425781 163.722656 L 551.597656 165.03125 L 559.445312 188.128906 C 556.339844 189.183594 553.242188 190.261719 550.15625 191.363281 L 541.898438 168.285156 C 521.523438 175.570312 501.53125 183.929688 482.042969 193.300781 L 482.105469 193.445312 C 463.078125 202.609375 444.511719 212.734375 426.507812 223.78125 L 439.300781 244.621094 C 436.460938 246.371094 433.636719 248.136719 430.824219 249.9375 L 417.617188 229.277344 C 417.039062 229.628906 416.480469 230.003906 415.914062 230.371094 L 414.21875 231.476562 L 410.835938 233.707031 C 408.582031 235.195312 406.316406 236.671875 404.078125 238.179688 L 397.414062 242.789062 L 394.089844 245.101562 L 392.425781 246.261719 L 390.789062 247.445312 L 384.242188 252.21875 L 380.976562 254.609375 C 380.425781 255 379.894531 255.414062 379.355469 255.824219 L 377.75 257.050781 L 371.320312 261.972656 C 370.253906 262.808594 369.171875 263.613281 368.117188 264.457031 L 366.117188 266.0625 L 366.09375 266.035156 C 349.152344 279.449219 332.898438 293.746094 317.433594 308.871094 L 334.605469 326.398438 C 332.238281 328.714844 329.894531 331.054688 327.566406 333.410156 L 310.203125 316.285156 C 295.339844 331.371094 281.25 347.203125 267.996094 363.714844 L 267.886719 363.632812 L 266.609375 365.199219 L 265.359375 366.808594 L 262.871094 370.003906 L 257.898438 376.425781 L 257.277344 377.230469 L 256.679688 378.042969 L 255.46875 379.671875 L 253.058594 382.9375 L 248.253906 389.476562 L 243.59375 396.121094 L 241.273438 399.457031 L 240.109375 401.117188 L 239.53125 401.949219 L 238.972656 402.792969 L 234.480469 409.554688 L 232.242188 412.941406 L 231.125 414.628906 L 230.042969 416.347656 L 250.691406 429.574219 C 248.9375 432.304688 247.210938 435.058594 245.503906 437.8125 L 224.703125 424.917969 C 213.316406 443.289062 202.878906 462.25 193.464844 481.722656 L 193.546875 481.761719 C 184.339844 500.886719 176.132812 520.460938 168.953125 540.363281 L 191.910156 548.648438 C 190.785156 551.75 189.695312 554.855469 188.628906 557.980469 L 165.421875 550.042969 L 164.753906 551.964844 L 164.121094 553.890625 L 162.867188 557.75 L 160.367188 565.464844 L 160.054688 566.433594 L 159.765625 567.40625 L 159.183594 569.34375 L 158.023438 573.234375 L 155.71875 581.023438 L 153.589844 588.847656 L 152.53125 592.769531 L 152.007812 594.726562 L 151.746094 595.714844 L 151.503906 596.699219 L 149.570312 604.578125 L 148.613281 608.511719 L 148.136719 610.496094 L 147.699219 612.472656 L 147.777344 612.492188 C 143.058594 633.042969 139.386719 653.851562 136.792969 674.8125 L 161.128906 677.820312 C 160.71875 681.144531 160.335938 684.480469 159.980469 687.816406 L 135.664062 685.273438 C 133.464844 706.316406 132.347656 727.445312 132.296875 748.539062 L 132.1875 748.539062 C 132.132812 770.171875 133.210938 791.820312 135.433594 813.332031 L 159.835938 810.800781 C 160.171875 814.023438 160.535156 817.25 160.917969 820.464844 L 136.648438 823.347656 C 139.191406 844.804688 142.855469 866.144531 147.640625 887.246094 L 147.675781 887.234375 C 152.402344 907.9375 158.226562 928.375 165.058594 948.464844 L 188.148438 940.613281 C 189.199219 943.71875 190.28125 946.816406 191.382812 949.902344 L 168.3125 958.160156 C 175.597656 978.539062 183.953125 998.523438 193.335938 1018.019531 L 193.472656 1017.945312 C 202.640625 1036.980469 212.769531 1055.539062 223.820312 1073.542969 L 244.65625 1060.753906 C 246.40625 1063.585938 248.175781 1066.410156 249.972656 1069.226562 L 229.3125 1082.4375 C 240.683594 1100.234375 252.992188 1117.40625 266.113281 1133.925781 L 266.074219 1133.957031 C 279.492188 1150.894531 293.796875 1167.148438 308.921875 1182.613281 L 326.449219 1165.4375 C 328.765625 1167.796875 331.101562 1170.148438 333.460938 1172.472656 L 316.339844 1189.847656 C 331.417969 1204.699219 347.253906 1218.785156 363.773438 1232.039062 L 363.6875 1232.148438 L 365.257812 1233.425781 L 370.0625 1237.164062 L 376.480469 1242.136719 C 377.011719 1242.5625 377.558594 1242.960938 378.101562 1243.355469 L 379.730469 1244.570312 L 382.996094 1246.96875 L 389.535156 1251.785156 L 396.1875 1256.4375 L 399.511719 1258.757812 L 401.175781 1259.921875 L 402.011719 1260.496094 L 402.855469 1261.058594 L 409.613281 1265.550781 L 412.996094 1267.792969 L 414.691406 1268.90625 L 416.410156 1269.988281 L 429.632812 1249.34375 C 432.363281 1251.089844 435.113281 1252.816406 437.875 1254.527344 L 424.984375 1275.328125 C 443.347656 1286.710938 462.316406 1297.144531 481.789062 1306.554688 L 481.828125 1306.476562 C 500.957031 1315.683594 520.53125 1323.882812 540.433594 1331.066406 L 548.710938 1308.105469 C 551.8125 1309.230469 554.921875 1310.316406 558.042969 1311.390625 L 550.109375 1334.59375 L 552.027344 1335.257812 L 553.953125 1335.890625 L 557.8125 1337.144531 L 565.53125 1339.644531 C 566.175781 1339.859375 566.824219 1340.058594 567.472656 1340.25 L 569.414062 1340.832031 L 573.304688 1341.988281 L 581.089844 1344.289062 L 588.917969 1346.421875 L 592.835938 1347.476562 L 594.800781 1348.007812 L 595.777344 1348.269531 L 596.761719 1348.507812 L 604.644531 1350.441406 L 608.589844 1351.394531 L 610.558594 1351.875 L 612.539062 1352.308594 L 612.554688 1352.226562 C 633.113281 1356.953125 653.929688 1360.617188 674.886719 1363.210938 L 677.886719 1338.871094 C 681.214844 1339.285156 684.542969 1339.664062 687.878906 1340.019531 L 685.34375 1364.335938 C 706.390625 1366.535156 727.519531 1367.644531 748.609375 1367.691406 L 748.609375 1367.800781 C 770.242188 1367.851562 791.890625 1366.777344 813.402344 1364.546875 L 810.867188 1340.148438 C 814.09375 1339.816406 817.320312 1339.457031 820.535156 1339.066406 L 823.421875 1363.328125 C 844.875 1360.789062 866.214844 1357.121094 887.316406 1352.339844 L 887.304688 1352.296875 C 908.007812 1347.566406 928.433594 1341.746094 948.523438 1334.914062 L 940.675781 1311.824219 C 943.78125 1310.769531 946.875 1309.691406 949.960938 1308.585938 L 958.230469 1331.65625 C 978.597656 1324.363281 998.59375 1316.011719 1018.078125 1306.621094 L 1018.019531 1306.484375 C 1037.039062 1297.324219 1055.597656 1287.1875 1073.605469 1276.132812 L 1060.800781 1255.300781 C 1063.648438 1253.550781 1066.46875 1251.785156 1069.285156 1249.984375 L 1082.496094 1270.644531 C 1100.285156 1259.269531 1117.464844 1246.960938 1133.976562 1233.839844 L 1134.019531 1233.867188 C 1150.949219 1220.453125 1167.199219 1206.144531 1182.660156 1191.019531 L 1165.484375 1173.496094 C 1167.847656 1171.171875 1170.199219 1168.84375 1172.519531 1166.484375 L 1189.886719 1183.605469 C 1204.746094 1168.523438 1218.832031 1152.6875 1232.089844 1136.164062 L 1232.199219 1136.246094 C 1232.621094 1135.726562 1233.054688 1135.203125 1233.472656 1134.675781 L 1234.722656 1133.070312 L 1237.214844 1129.867188 L 1242.175781 1123.457031 C 1242.601562 1122.921875 1243 1122.378906 1243.40625 1121.839844 L 1244.609375 1120.203125 L 1247.019531 1116.9375 L 1251.824219 1110.394531 L 1256.476562 1103.75 L 1258.800781 1100.421875 C 1259.574219 1099.308594 1260.367188 1098.210938 1261.097656 1097.078125 L 1265.589844 1090.316406 L 1267.832031 1086.941406 L 1268.945312 1085.238281 L 1270.019531 1083.523438 L 1249.371094 1070.300781 C 1251.121094 1067.566406 1252.859375 1064.820312 1254.554688 1062.058594 L 1275.355469 1074.953125 C 1286.753906 1056.582031 1297.183594 1037.613281 1306.589844 1018.140625 L 1306.503906 1018.097656 C 1315.710938 998.976562 1323.910156 979.402344 1331.085938 959.492188 L 1308.132812 951.214844 C 1309.25 948.121094 1310.34375 945.007812 1311.410156 941.882812 L 1334.613281 949.816406 C 1334.832031 949.175781 1335.066406 948.542969 1335.285156 947.898438 L 1335.910156 945.972656 L 1337.164062 942.113281 L 1339.664062 934.394531 C 1339.878906 933.753906 1340.078125 933.097656 1340.269531 932.453125 L 1340.855469 930.507812 L 1342.007812 926.617188 L 1344.308594 918.839844 L 1346.441406 911.003906 L 1347.496094 907.082031 C 1347.835938 905.777344 1348.207031 904.480469 1348.519531 903.164062 L 1350.449219 895.273438 L 1351.414062 891.335938 L 1351.882812 889.367188 L 1352.320312 887.386719 L 1352.25 887.367188 C 1356.941406 866.898438 1360.597656 846.179688 1363.179688 825.320312 L 1338.84375 822.304688 C 1339.265625 818.886719 1339.664062 815.472656 1340.03125 812.046875 L 1364.347656 814.578125 C 1366.523438 793.628906 1367.644531 772.59375 1367.691406 751.59375 L 1367.800781 751.59375 C 1367.863281 729.957031 1366.789062 708.316406 1364.578125 686.800781 " fill-opacity="1" fill-rule="nonzero"/></g><path fill="#63a7fa" d="M 749.996094 1118.613281 C 546.414062 1118.613281 381.378906 953.578125 381.378906 749.996094 C 381.378906 546.414062 546.414062 381.378906 749.996094 381.378906 C 953.578125 381.378906 1118.613281 546.414062 1118.613281 749.996094 C 1118.613281 953.578125 953.578125 1118.613281 749.996094 1118.613281 Z M 749.996094 334.617188 C 520.589844 334.617188 334.621094 520.589844 334.621094 749.996094 C 334.621094 979.402344 520.589844 1165.375 749.996094 1165.375 C 979.402344 1165.375 1165.375 979.402344 1165.375 749.996094 C 1165.375 520.589844 979.402344 334.617188 749.996094 334.617188 " fill-opacity="1" fill-rule="nonzero"/><path fill="#63a7fa" d="M 749.996094 392.101562 C 552.335938 392.101562 392.101562 552.332031 392.101562 749.996094 C 392.101562 947.660156 552.335938 1107.890625 749.996094 1107.890625 C 947.660156 1107.890625 1107.890625 947.660156 1107.890625 749.996094 C 1107.890625 552.332031 947.660156 392.101562 749.996094 392.101562 " fill-opacity="1" fill-rule="nonzero"/><path fill="#ffffff" d="M 478.667969 749.996094 C 478.667969 585.082031 609.046875 450.632812 772.355469 444.082031 C 768.203125 443.910156 764.042969 443.820312 759.863281 443.820312 C 590.769531 443.820312 453.691406 580.898438 453.691406 749.996094 C 453.691406 919.09375 590.769531 1056.171875 759.863281 1056.171875 C 764.042969 1056.171875 768.203125 1056.082031 772.355469 1055.910156 C 609.046875 1049.359375 478.667969 914.910156 478.667969 749.996094 " fill-opacity="1" fill-rule="nonzero"/><path fill="#ffffff" d="M 989.277344 750.105469 C 989.277344 822.988281 930.191406 882.074219 857.320312 882.074219 C 784.445312 882.074219 725.363281 822.988281 725.363281 750.105469 C 725.363281 677.234375 784.445312 618.148438 857.320312 618.148438 C 930.191406 618.148438 989.277344 677.234375 989.277344 750.105469 " fill-opacity="1" fill-rule="nonzero"/></svg>